# xmcd CD database file
#
# Track frame offsets:
#        150
#        21699
#        44797
#        79007
#        111819
#        139556
#        177218
#        184381
#        212572
#        230043
#
# Disc length: 3775 seconds
#
# Revision: 0
# Processed by: cddbd v1.5.2PL0 Copyright (c) Steve Scherf et al.
# Submitted via: CUERipper 2.0.9
#
DISCID=910ebd0a
DTITLE=Gov't Mule - Mulennium [CD1]
DYEAR=2010
DGENRE=Southern Rock
TTITLE0=Bad Little Doggie
TTITLE1=Lay Your Burden Down
TTITLE2=Blind Man In The Dark
TTITLE3=Life Before Insanity
TTITLE4=Larger Than Life
TTITLE5=Towering Fool
TTITLE6=Countdown Jam
TTITLE7=21st Century Schizoid Man
TTITLE8=We're Not Gonna Take It
TTITLE9=Dazed And Confused
EXTD=
EXTT0=
EXTT1=
EXTT2=
EXTT3=
EXTT4=
EXTT5=
EXTT6=
EXTT7=
EXTT8=
EXTT9=
PLAYORDER=
